<svg width="6" height="4" viewBox="0 0 6 4" fill="none" xmlns="http://www.w3.org/2000/svg">
<path d="M5.85401 0.146001C5.90057 0.192447 5.93751 0.247622 5.96272 0.308367C5.98793 0.369112 6.0009 0.434234 6.0009 0.500001C6.0009 0.565768 5.98793 0.63089 5.96272 0.691635C5.93751 0.75238 5.90057 0.807555 5.85401 0.854001L2.85401 3.854C2.80756 3.90056 2.75239 3.93751 2.69164 3.96271C2.63089 3.98792 2.56577 4.00089 2.50001 4.00089C2.43424 4.00089 2.36912 3.98792 2.30837 3.96271C2.24763 3.93751 2.19245 3.90056 2.14601 3.854L0.646006 2.354C0.599518 2.30751 0.562642 2.25232 0.537483 2.19158C0.512324 2.13085 0.499374 2.06574 0.499374 2C0.499374 1.93426 0.512324 1.86916 0.537483 1.80842C0.562642 1.74768 0.599518 1.69249 0.646006 1.646C0.739893 1.55211 0.86723 1.49937 1.00001 1.49937C1.06575 1.49937 1.13085 1.51232 1.19159 1.53748C1.25233 1.56264 1.30752 1.59951 1.35401 1.646L2.50001 2.793L5.14601 0.146001C5.19245 0.0994376 5.24763 0.0624946 5.30837 0.0372882C5.36912 0.0120817 5.43424 -0.000892639 5.50001 -0.000892639C5.56577 -0.000892639 5.63089 0.0120817 5.69164 0.0372882C5.75238 0.0624946 5.80756 0.0994376 5.85401 0.146001Z" fill="black"/>
</svg>
