<svg width="48" height="7" viewBox="0 0 48 7" fill="none" xmlns="http://www.w3.org/2000/svg">
<path d="M2.64773 0.181818V6H1.94318V0.920455H1.90909L0.488636 1.86364V1.14773L1.94318 0.181818H2.64773ZM4.32102 6V5.48864L6.24148 3.38636C6.46686 3.14015 6.65246 2.92614 6.7983 2.74432C6.94413 2.56061 7.05208 2.38826 7.12216 2.22727C7.19413 2.06439 7.23011 1.89394 7.23011 1.71591C7.23011 1.51136 7.18087 1.33428 7.08239 1.18466C6.9858 1.03504 6.85322 0.919507 6.68466 0.838068C6.5161 0.756629 6.3267 0.715909 6.11648 0.715909C5.89299 0.715909 5.69792 0.762311 5.53125 0.855114C5.36648 0.946023 5.23864 1.07386 5.14773 1.23864C5.05871 1.40341 5.0142 1.59659 5.0142 1.81818H4.34375C4.34375 1.47727 4.42235 1.17803 4.57955 0.920455C4.73674 0.662879 4.95076 0.462121 5.22159 0.318182C5.49432 0.174242 5.80019 0.102273 6.1392 0.102273C6.48011 0.102273 6.7822 0.174242 7.04545 0.318182C7.30871 0.462121 7.51515 0.65625 7.66477 0.900568C7.81439 1.14489 7.8892 1.41667 7.8892 1.71591C7.8892 1.92992 7.85038 2.1392 7.77273 2.34375C7.69697 2.5464 7.56439 2.77273 7.375 3.02273C7.1875 3.27083 6.92708 3.57386 6.59375 3.93182L5.28693 5.32955V5.375H7.99148V6H4.32102ZM9.66477 6.04545C9.52462 6.04545 9.40436 5.99527 9.30398 5.89489C9.2036 5.79451 9.15341 5.67424 9.15341 5.53409C9.15341 5.39394 9.2036 5.27367 9.30398 5.1733C9.40436 5.07292 9.52462 5.02273 9.66477 5.02273C9.80492 5.02273 9.92519 5.07292 10.0256 5.1733C10.1259 5.27367 10.1761 5.39394 10.1761 5.53409C10.1761 5.62689 10.1525 5.71212 10.1051 5.78977C10.0597 5.86742 9.99811 5.92992 9.92045 5.97727C9.8447 6.02273 9.75947 6.04545 9.66477 6.04545ZM13.0625 6.07955C12.6345 6.07955 12.2699 5.96307 11.9688 5.73011C11.6676 5.49527 11.4375 5.1553 11.2784 4.71023C11.1193 4.26326 11.0398 3.72348 11.0398 3.09091C11.0398 2.46212 11.1193 1.92519 11.2784 1.48011C11.4394 1.03314 11.6705 0.692235 11.9716 0.457386C12.2746 0.220644 12.6383 0.102273 13.0625 0.102273C13.4867 0.102273 13.8494 0.220644 14.1506 0.457386C14.4536 0.692235 14.6847 1.03314 14.8438 1.48011C15.0047 1.92519 15.0852 2.46212 15.0852 3.09091C15.0852 3.72348 15.0057 4.26326 14.8466 4.71023C14.6875 5.1553 14.4574 5.49527 14.1562 5.73011C13.8551 5.96307 13.4905 6.07955 13.0625 6.07955ZM13.0625 5.45455C13.4867 5.45455 13.8163 5.25 14.0511 4.84091C14.286 4.43182 14.4034 3.84848 14.4034 3.09091C14.4034 2.58712 14.3494 2.15814 14.2415 1.80398C14.1354 1.44981 13.982 1.17992 13.7812 0.994318C13.5824 0.808712 13.3428 0.715909 13.0625 0.715909C12.642 0.715909 12.3134 0.923295 12.0767 1.33807C11.84 1.75095 11.7216 2.33523 11.7216 3.09091C11.7216 3.5947 11.7746 4.02273 11.8807 4.375C11.9867 4.72727 12.1392 4.99527 12.3381 5.17898C12.5388 5.36269 12.7803 5.45455 13.0625 5.45455ZM16.1903 6L18.7926 0.852273V0.806818H15.7926V0.181818H19.5199V0.840909L16.929 6H16.1903ZM20.0788 6.04545C19.9387 6.04545 19.8184 5.99527 19.718 5.89489C19.6177 5.79451 19.5675 5.67424 19.5675 5.53409C19.5675 5.39394 19.6177 5.27367 19.718 5.1733C19.8184 5.07292 19.9387 5.02273 20.0788 5.02273C20.219 5.02273 20.3393 5.07292 20.4396 5.1733C20.54 5.27367 20.5902 5.39394 20.5902 5.53409C20.5902 5.62689 20.5665 5.71212 20.5192 5.78977C20.4737 5.86742 20.4122 5.92992 20.3345 5.97727C20.2588 6.02273 20.1735 6.04545 20.0788 6.04545ZM21.782 6V5.48864L23.7024 3.38636C23.9278 3.14015 24.1134 2.92614 24.2592 2.74432C24.4051 2.56061 24.513 2.38826 24.5831 2.22727C24.6551 2.06439 24.6911 1.89394 24.6911 1.71591C24.6911 1.51136 24.6418 1.33428 24.5433 1.18466C24.4467 1.03504 24.3142 0.919507 24.1456 0.838068C23.977 0.756629 23.7876 0.715909 23.5774 0.715909C23.3539 0.715909 23.1589 0.762311 22.9922 0.855114C22.8274 0.946023 22.6996 1.07386 22.6087 1.23864C22.5196 1.40341 22.4751 1.59659 22.4751 1.81818H21.8047C21.8047 1.47727 21.8833 1.17803 22.0405 0.920455C22.1977 0.662879 22.4117 0.462121 22.6825 0.318182C22.9553 0.174242 23.2611 0.102273 23.6001 0.102273C23.9411 0.102273 24.2431 0.174242 24.5064 0.318182C24.7696 0.462121 24.9761 0.65625 25.1257 0.900568C25.2753 1.14489 25.3501 1.41667 25.3501 1.71591C25.3501 1.92992 25.3113 2.1392 25.2337 2.34375C25.1579 2.5464 25.0253 2.77273 24.8359 3.02273C24.6484 3.27083 24.388 3.57386 24.0547 3.93182L22.7479 5.32955V5.375H25.4524V6H21.782ZM28.5234 6.07955C28.0954 6.07955 27.7308 5.96307 27.4297 5.73011C27.1286 5.49527 26.8984 5.1553 26.7393 4.71023C26.5803 4.26326 26.5007 3.72348 26.5007 3.09091C26.5007 2.46212 26.5803 1.92519 26.7393 1.48011C26.9003 1.03314 27.1314 0.692235 27.4325 0.457386C27.7356 0.220644 28.0992 0.102273 28.5234 0.102273C28.9477 0.102273 29.3104 0.220644 29.6115 0.457386C29.9145 0.692235 30.1456 1.03314 30.3047 1.48011C30.4657 1.92519 30.5462 2.46212 30.5462 3.09091C30.5462 3.72348 30.4666 4.26326 30.3075 4.71023C30.1484 5.1553 29.9183 5.49527 29.6172 5.73011C29.3161 5.96307 28.9515 6.07955 28.5234 6.07955ZM28.5234 5.45455C28.9477 5.45455 29.2772 5.25 29.5121 4.84091C29.7469 4.43182 29.8643 3.84848 29.8643 3.09091C29.8643 2.58712 29.8104 2.15814 29.7024 1.80398C29.5964 1.44981 29.4429 1.17992 29.2422 0.994318C29.0433 0.808712 28.8037 0.715909 28.5234 0.715909C28.103 0.715909 27.7744 0.923295 27.5376 1.33807C27.3009 1.75095 27.1825 2.33523 27.1825 3.09091C27.1825 3.5947 27.2356 4.02273 27.3416 4.375C27.4477 4.72727 27.6001 4.99527 27.799 5.17898C27.9998 5.36269 28.2412 5.45455 28.5234 5.45455ZM31.6257 6V5.48864L33.5462 3.38636C33.7715 3.14015 33.9571 2.92614 34.103 2.74432C34.2488 2.56061 34.3568 2.38826 34.4268 2.22727C34.4988 2.06439 34.5348 1.89394 34.5348 1.71591C34.5348 1.51136 34.4856 1.33428 34.3871 1.18466C34.2905 1.03504 34.1579 0.919507 33.9893 0.838068C33.8208 0.756629 33.6314 0.715909 33.4212 0.715909C33.1977 0.715909 33.0026 0.762311 32.8359 0.855114C32.6712 0.946023 32.5433 1.07386 32.4524 1.23864C32.3634 1.40341 32.3189 1.59659 32.3189 1.81818H31.6484C31.6484 1.47727 31.727 1.17803 31.8842 0.920455C32.0414 0.662879 32.2554 0.462121 32.5263 0.318182C32.799 0.174242 33.1049 0.102273 33.4439 0.102273C33.7848 0.102273 34.0869 0.174242 34.3501 0.318182C34.6134 0.462121 34.8198 0.65625 34.9695 0.900568C35.1191 1.14489 35.1939 1.41667 35.1939 1.71591C35.1939 1.92992 35.1551 2.1392 35.0774 2.34375C35.0017 2.5464 34.8691 2.77273 34.6797 3.02273C34.4922 3.27083 34.2318 3.57386 33.8984 3.93182L32.5916 5.32955V5.375H35.2962V6H31.6257ZM36.4695 6V5.48864L38.3899 3.38636C38.6153 3.14015 38.8009 2.92614 38.9467 2.74432C39.0926 2.56061 39.2005 2.38826 39.2706 2.22727C39.3426 2.06439 39.3786 1.89394 39.3786 1.71591C39.3786 1.51136 39.3293 1.33428 39.2308 1.18466C39.1342 1.03504 39.0017 0.919507 38.8331 0.838068C38.6645 0.756629 38.4751 0.715909 38.2649 0.715909C38.0414 0.715909 37.8464 0.762311 37.6797 0.855114C37.5149 0.946023 37.3871 1.07386 37.2962 1.23864C37.2071 1.40341 37.1626 1.59659 37.1626 1.81818H36.4922C36.4922 1.47727 36.5708 1.17803 36.728 0.920455C36.8852 0.662879 37.0992 0.462121 37.37 0.318182C37.6428 0.174242 37.9486 0.102273 38.2876 0.102273C38.6286 0.102273 38.9306 0.174242 39.1939 0.318182C39.4571 0.462121 39.6636 0.65625 39.8132 0.900568C39.9628 1.14489 40.0376 1.41667 40.0376 1.71591C40.0376 1.92992 39.9988 2.1392 39.9212 2.34375C39.8454 2.5464 39.7128 2.77273 39.5234 3.02273C39.3359 3.27083 39.0755 3.57386 38.7422 3.93182L37.4354 5.32955V5.375H40.1399V6H36.4695ZM46.2678 1.63636V2.26136H44.245V6H43.5746V1.63636H46.2678ZM47.0085 6.04545C46.8684 6.04545 46.7481 5.99527 46.6477 5.89489C46.5473 5.79451 46.4972 5.67424 46.4972 5.53409C46.4972 5.39394 46.5473 5.27367 46.6477 5.1733C46.7481 5.07292 46.8684 5.02273 47.0085 5.02273C47.1487 5.02273 47.2689 5.07292 47.3693 5.1733C47.4697 5.27367 47.5199 5.39394 47.5199 5.53409C47.5199 5.62689 47.4962 5.71212 47.4489 5.78977C47.4034 5.86742 47.3419 5.92992 47.2642 5.97727C47.1884 6.02273 47.1032 6.04545 47.0085 6.04545Z" fill="black"/>
</svg>
